<svg width="80" height="75" viewBox="0 0 80 75" fill="none" xmlns="http://www.w3.org/2000/svg">
<path d="M70.7044 0.51384H8.48453C3.80602 0.51384 0 3.59217 0 7.37617V25.6757C0 29.4597 3.80602 32.538 8.48453 32.538H25.4893C25.6724 36.4873 27.709 40.0824 31.11 42.445V43.9753H30.7564C22.9595 43.9753 16.6156 49.1063 16.6156 55.4125V71.4246C16.6156 72.689 17.8804 73.7121 19.4437 73.7121H59.3917C60.955 73.7121 62.2199 72.689 62.2199 71.4246V55.4125C62.2199 49.1063 55.8759 43.9753 48.079 43.9753V42.445C51.4799 40.082 53.5165 36.4873 53.6997 32.538H56.5635V39.4004C56.5635 40.3251 57.2511 41.1606 58.3092 41.5137C58.6599 41.6321 59.0272 41.6878 59.3917 41.6878C60.1263 41.6878 60.85 41.4557 61.3912 41.0176L71.9693 32.462C76.0514 31.9662 79.1889 29.1115 79.1889 25.6757V7.37617C79.1889 3.59217 75.3829 0.51384 70.7044 0.51384ZM39.5945 52.178L37.7094 50.6535C38.3179 50.7661 38.9443 50.838 39.5945 50.838C40.2446 50.838 40.8711 50.7661 41.4794 50.6535L39.5945 52.178ZM56.5635 55.4125V69.1372H22.2719V55.4125C22.2719 52.3071 24.8516 49.7071 28.357 48.8638C28.4394 49.3388 28.6586 49.8023 29.11 50.1677L36.7663 56.3595V64.5623C36.7663 65.8267 38.0312 66.8497 39.5945 66.8497C41.1577 66.8497 42.4226 65.8267 42.4226 64.5623V56.3595L50.0786 50.1674C50.5035 49.824 50.7134 49.3917 50.8114 48.9473C54.1454 49.8732 56.5635 52.4057 56.5635 55.4125ZM43.6433 39.4407C42.8783 39.8696 42.4226 40.5733 42.4226 41.3238V43.9753C42.4226 45.2374 41.1549 46.2627 39.5945 46.2627C38.034 46.2627 36.7663 45.2374 36.7663 43.9753V41.3238C36.7663 40.5733 36.3106 39.8696 35.5456 39.4407C32.8086 37.9127 31.11 35.0489 31.11 31.9662C31.11 27.2372 34.9159 23.3883 39.5945 23.3883C44.2729 23.3883 48.079 27.2372 48.079 31.9662C48.079 35.0489 46.3803 37.9127 43.6433 39.4407ZM73.5326 25.6757C73.5326 26.9379 72.2649 27.9632 70.7044 27.9632C69.9532 27.9632 69.2352 28.2045 68.7049 28.6334L62.2199 33.8786V30.2506C62.2199 28.9862 60.955 27.9632 59.3917 27.9632H53.0609C51.2352 22.6626 45.8907 18.8134 39.5945 18.8134C33.2982 18.8134 27.9537 22.6626 26.1281 27.9632H8.48453C6.92409 27.9632 5.65635 26.9379 5.65635 25.6757V7.37617C5.65635 6.11408 6.92409 5.08873 8.48453 5.08873H70.7044C72.2649 5.08873 73.5326 6.11408 73.5326 7.37617V25.6757Z" fill="#FC8047"/>
<path d="M28.2812 16.526C29.8433 16.526 31.1095 15.5018 31.1095 14.2385C31.1095 12.9751 29.8433 11.951 28.2812 11.951C26.7193 11.951 25.4531 12.9751 25.4531 14.2385C25.4531 15.5018 26.7193 16.526 28.2812 16.526Z" fill="#FFA67C"/>
<path d="M39.5942 16.526C41.1561 16.526 42.4223 15.5018 42.4223 14.2385C42.4223 12.9751 41.1561 11.951 39.5942 11.951C38.0322 11.951 36.766 12.9751 36.766 14.2385C36.766 15.5018 38.0322 16.526 39.5942 16.526Z" fill="#FFA67C"/>
<path d="M50.9073 16.526C52.4693 16.526 53.7355 15.5018 53.7355 14.2385C53.7355 12.9751 52.4693 11.951 50.9073 11.951C49.3454 11.951 48.0792 12.9751 48.0792 14.2385C48.0792 15.5018 49.3454 16.526 50.9073 16.526Z" fill="#FFA67C"/>
</svg>
