<svg width="80" height="75" viewBox="0 0 80 75" fill="none" xmlns="http://www.w3.org/2000/svg">
<path d="M73.171 36.8304C75.0336 35.567 76.2499 33.5331 76.2499 31.2367C76.2499 27.6295 73.2623 24.6596 69.4575 24.3287C65.25 15.977 57.1412 9.86502 47.4813 7.7571C47.2875 4.08853 44.0113 1.15691 40 1.15691C35.9887 1.15691 32.7125 4.08853 32.5187 7.7571C22.86 9.86502 14.7487 15.9793 10.5425 24.3287C6.7375 24.6596 3.75 27.6295 3.75 31.2367C3.75 33.5331 4.96625 35.567 6.82875 36.8304C3.52875 38.3448 1.24999 41.487 1.24999 45.1197V48.5904C1.24999 49.2291 1.81 49.7474 2.5 49.7474H10.5587C14.4212 57.3783 21.715 63.2601 30.3837 65.7511C30.14 66.5492 30 67.3879 30 68.2581V71.7289C30 72.3671 30.56 72.8854 31.25 72.8854H48.75C49.44 72.8854 50 72.3671 50 71.7289V68.2581C50 67.3879 49.86 66.5492 49.6175 65.7511C58.285 63.2601 65.5788 57.3783 69.4413 49.7474H77.5002C78.1897 49.7474 78.7497 49.2291 78.7497 48.5904V45.1197C78.7497 41.487 76.4715 38.3448 73.171 36.8304ZM73.7501 31.2367C73.7501 33.7888 71.5073 35.8644 68.75 35.8644C65.9925 35.8644 63.75 33.7888 63.75 31.2367C63.75 28.6845 65.9925 26.6091 68.75 26.6091C71.5073 26.6091 73.7501 28.6845 73.7501 31.2367ZM40 3.47074C42.7575 3.47074 45 5.54625 45 8.09842C45 10.6505 42.7575 12.7261 40 12.7261C37.2425 12.7261 35 10.6505 35 8.09842C35 5.54625 37.2425 3.47074 40 3.47074ZM6.24999 31.2367C6.24999 28.6845 8.49253 26.6091 11.25 26.6091C14.0075 26.6091 16.25 28.6845 16.25 31.2367C16.25 33.7888 14.0075 35.8644 11.25 35.8644C8.49253 35.8644 6.24999 33.7888 6.24999 31.2367ZM3.75 45.1197C3.75 41.2914 7.11377 38.1782 11.25 38.1782C15.3863 38.1782 18.75 41.2914 18.75 45.1197V47.4335H3.75V45.1197ZM47.5 70.5717H32.5V68.2581C32.5 64.4297 35.8637 61.3165 40 61.3165C44.1363 61.3165 47.5 64.4297 47.5 68.2581V70.5717ZM35 54.375C35 51.8228 37.2425 49.7474 40 49.7474C42.7575 49.7474 45 51.8228 45 54.375C45 56.9271 42.7575 59.0027 40 59.0027C37.2425 59.0027 35 56.9271 35 54.375ZM48.6325 63.6083C47.6462 62.0454 46.1812 60.7762 44.4212 59.9687C46.2837 58.7053 47.5 56.6714 47.5 54.375C47.5 50.5468 44.1363 47.4335 40 47.4335C35.8637 47.4335 32.5 50.5468 32.5 54.375C32.5 56.6714 33.7162 58.7053 35.5788 59.9687C33.82 60.7762 32.355 62.0454 31.3675 63.6083C23.6338 61.4553 17.0537 56.3869 13.3375 49.7474H20C20.69 49.7474 21.25 49.2291 21.25 48.5904V45.1197C21.25 41.487 18.9713 38.3448 15.6712 36.8304C17.5337 35.567 18.75 33.5331 18.75 31.2367C18.75 28.0332 16.39 25.3376 13.1975 24.5416C17.1375 17.3016 24.315 12.0041 32.8113 10.0698C33.2837 11.5414 34.27 12.8059 35.5775 13.6932C32.2787 15.2065 30 18.3487 30 21.9814V25.4522C30 26.0908 30.56 26.6091 31.25 26.6091H48.75C49.44 26.6091 50 26.0908 50 25.4522V21.9814C50 18.3487 47.7213 15.2065 44.4212 13.6921C45.7275 12.8047 46.715 11.5402 47.1875 10.0686C55.6862 12.003 62.8612 17.2993 66.8013 24.5404C63.6088 25.3376 61.25 28.0332 61.25 31.2367C61.25 33.5331 62.4663 35.567 64.3288 36.8304C61.0287 38.3448 58.75 41.487 58.75 45.1197V48.5904C58.75 49.2291 59.31 49.7474 60 49.7474H66.6625C62.945 56.3869 56.3662 61.4553 48.6325 63.6083ZM40 15.0399C44.1363 15.0399 47.5 18.1531 47.5 21.9814V24.2952H32.5V21.9814C32.5 18.1531 35.8637 15.0399 40 15.0399ZM76.2499 47.4335H61.25V45.1197C61.25 41.2914 64.6137 38.1782 68.75 38.1782C72.8864 38.1782 76.2499 41.2914 76.2499 45.1197V47.4335Z" fill="#FC8047"/>
<path d="M33.75 37.0213H31.25C31.25 41.487 35.175 45.1197 40 45.1197V42.8058C36.5538 42.8058 33.75 40.2109 33.75 37.0213Z" fill="#FC8047"/>
<path d="M40 28.9229V31.2367C43.4462 31.2367 46.25 33.8317 46.25 37.0213H48.75C48.75 32.5556 44.825 28.9229 40 28.9229Z" fill="#FC8047"/>
</svg>
