<svg width="80" height="75" viewBox="0 0 80 75" fill="none" xmlns="http://www.w3.org/2000/svg">
<path d="M73.4374 4.62766H6.5625C5.48543 4.62876 4.45281 5.02526 3.6912 5.73015C2.92959 6.43503 2.5012 7.39079 2.5 8.38761V54.0858C2.5012 55.0826 2.92959 56.0383 3.6912 56.7433C4.45281 57.4481 5.48543 57.8446 6.5625 57.8457H32.5V62.4736H28.75C28.4712 62.4736 28.2005 62.5598 27.9808 62.7183C27.761 62.8774 27.605 63.0996 27.5373 63.3498L26.2873 67.9772C26.2413 68.1479 26.2378 68.326 26.2772 68.4979C26.3166 68.6699 26.3979 68.8314 26.5148 68.9697C26.6317 69.1086 26.7812 69.2206 26.9519 69.2977C27.1226 69.3748 27.31 69.4146 27.5 69.4152H52.5C52.69 69.4146 52.8774 69.3748 53.0481 69.2977C53.2188 69.2206 53.3683 69.1086 53.4852 68.9697C53.6021 68.8314 53.6834 68.6699 53.7228 68.4979C53.7622 68.326 53.7587 68.1479 53.7127 67.9772L52.4627 63.3498C52.395 63.0996 52.239 62.8774 52.0192 62.7183C51.7995 62.5598 51.5288 62.4736 51.25 62.4736H47.5V57.8457H73.4374C74.5144 57.8446 75.5471 57.4481 76.3088 56.7433C77.0704 56.0383 77.4988 55.0826 77.5002 54.0858V8.38761C77.4988 7.39079 77.0704 6.43503 76.3088 5.73015C75.5471 5.02526 74.5144 4.62876 73.4374 4.62766ZM50.274 64.7872L50.899 67.1009H29.101L29.7259 64.7872H50.274ZM40 61.3164C40.9942 61.3152 41.9474 60.9494 42.6504 60.2987C43.3534 59.6481 43.7488 58.7659 43.75 57.8457H45V62.4736H35V57.8457H36.25C36.2512 58.7659 36.6466 59.6481 37.3496 60.2987C38.0526 60.9494 39.0058 61.3152 40 61.3164ZM38.75 57.8457H41.25C41.25 58.1526 41.1183 58.4469 40.8839 58.6638C40.6495 58.8808 40.3315 59.0027 40 59.0027C39.6685 59.0027 39.3505 58.8808 39.1161 58.6638C38.8817 58.4469 38.75 58.1526 38.75 57.8457ZM75.0003 54.0858C74.9997 54.4692 74.835 54.8368 74.5422 55.1079C74.2486 55.379 73.8519 55.5315 73.4374 55.5319H6.5625C6.14824 55.5315 5.75107 55.379 5.45815 55.1079C5.16522 54.8368 5.00046 54.4692 5 54.0858V8.38761C5.00046 8.00424 5.16522 7.63666 5.45815 7.36552C5.75107 7.09437 6.14824 6.94188 6.5625 6.94152H73.4374C73.8519 6.94188 74.2486 7.09437 74.5422 7.36552C74.835 7.63666 74.9997 8.00424 75.0003 8.38761V54.0858Z" fill="#FC8047"/>
<path d="M71.2503 9.25533H8.75003C8.41853 9.25533 8.10058 9.37722 7.86613 9.59421C7.63168 9.81113 7.50005 10.1054 7.50005 10.4122V52.0612C7.50005 52.368 7.63168 52.6623 7.86613 52.8792C8.10058 53.0962 8.41853 53.2181 8.75003 53.2181H71.2503C71.5815 53.2181 71.8995 53.0962 72.1342 52.8792C72.3683 52.6623 72.4998 52.368 72.4998 52.0612V10.4122C72.4998 10.1054 72.3683 9.81113 72.1342 9.59421C71.8995 9.37722 71.5815 9.25533 71.2503 9.25533ZM15 45.1197V46.2766H13.75V43.9628H15.083C15.0286 44.2459 15 45.1197 15 45.1197ZM20 50.9043H17.5V46.6014L20 47.1799V50.9043ZM30 46.2766V50.9043H22.5V46.2766C22.5 46.0186 22.4068 45.768 22.2353 45.5646C22.0637 45.3613 21.8236 45.2168 21.5531 45.1543L17.5781 44.2344C17.648 43.958 17.7665 43.6942 17.9289 43.4534L17.9299 43.4522C18.1408 43.1395 18.4213 42.8721 18.7527 42.6677C19.0841 42.4634 19.4588 42.3268 19.8517 42.267L23.2513 41.7426C24.0487 42.4758 25.1272 42.8873 26.2513 42.8873C27.3754 42.8873 28.4538 42.4758 29.2513 41.7426L32.6508 42.267C33.1974 42.3501 33.7052 42.5814 34.1098 42.9318C34.5143 43.282 34.7976 43.7355 34.9236 44.2348L30.9479 45.1547C30.6773 45.2171 30.437 45.3613 30.2653 45.5647C30.0936 45.768 30.0001 46.0186 30 46.2766ZM30.8839 31.5755L28.3839 29.2617C28.1984 29.09 27.9592 28.9766 27.7002 28.9377C27.4413 28.8988 27.1756 28.9362 26.941 29.0448L21.941 31.3586C21.7333 31.4548 21.5586 31.6025 21.4366 31.7852C21.3146 31.9681 21.2499 32.1787 21.25 32.3936V34.7075C21.2493 35.8332 21.694 36.9203 22.5 37.7634V39.512L21.5361 39.6605C20.5424 38.6101 19.9963 37.2605 20 35.8644V31.2367C20 29.7025 20.6585 28.2312 21.8306 27.1464C23.0027 26.0616 24.5924 25.4522 26.25 25.4522C27.9076 25.4522 29.4973 26.0616 30.6694 27.1464C31.8415 28.2312 32.5 29.7025 32.5 31.2367V35.8644C32.5038 37.2605 31.9576 38.6101 30.9639 39.6605L30 39.512V37.7634C30.806 36.9203 31.2507 35.8332 31.25 34.7075V32.3936C31.25 32.2417 31.2177 32.0913 31.1549 31.9509C31.092 31.8105 31 31.683 30.8839 31.5755ZM26.25 37.0213C25.5872 37.0205 24.9518 36.7765 24.4831 36.3428C24.0144 35.909 23.7508 35.3209 23.75 34.7075V33.1086L27.2532 31.4875L28.75 32.8728V34.7075C28.7492 35.3209 28.4856 35.909 28.0169 36.3428C27.5482 36.7765 26.9128 37.0205 26.25 37.0213ZM27.5 39.1886V40.0871C27.3372 40.2412 27.1428 40.3637 26.9281 40.4473C26.7134 40.5308 26.4829 40.5739 26.25 40.5739C26.0171 40.5739 25.7866 40.5308 25.5719 40.4473C25.3573 40.3637 25.1629 40.2412 25 40.0871V39.1892C25.82 39.3845 26.68 39.384 27.5 39.1886ZM35.3489 50.9043H32.5V47.1799L35.2396 46.546L35.7992 49.654L35.3489 50.9043ZM36.2405 41.6489C35.5718 40.9201 34.6873 40.3885 33.6959 40.1196C34.5518 38.8419 35.0035 37.3677 35 35.8644V31.2367C35 29.0889 34.0782 27.029 32.4372 25.5103C30.7962 23.9915 28.5707 23.1383 26.25 23.1383C23.9294 23.1383 21.7037 23.9915 20.0628 25.5103C18.4219 27.029 17.5 29.0889 17.5 31.2367V35.8644C17.4966 37.3678 17.9484 38.8419 18.804 40.1198C17.8125 40.3885 16.9276 40.9201 16.2588 41.6489H15V18.5106H65V41.6489H46.25C46.25 41.3421 46.1183 41.0479 45.8839 40.8309C45.6495 40.6139 45.3315 40.492 45 40.492H44.1572L46.2019 33.8687C46.247 33.7226 46.2606 33.5697 46.2419 33.4188C46.2233 33.2678 46.1726 33.1217 46.0929 32.989C46.0132 32.8561 45.9061 32.7391 45.7775 32.6446C45.649 32.5501 45.5016 32.48 45.3438 32.4382C45.1859 32.3964 45.0208 32.3838 44.8577 32.4011C44.6946 32.4184 44.5367 32.4653 44.3932 32.539C44.2497 32.6128 44.1233 32.7119 44.0212 32.8309C43.9191 32.9499 43.8433 33.0863 43.7982 33.2324L41.557 40.492H40C39.7377 40.492 39.4819 40.5684 39.2691 40.7104C39.0562 40.8523 38.8971 41.0527 38.8141 41.2831L38.6823 41.6489H36.2405ZM66.2499 43.9628V46.2766H45.2952L45.5591 46.1544C45.7667 46.0583 45.9413 45.9106 46.0634 45.7279C46.1853 45.5451 46.25 45.3345 46.25 45.1197V43.9628H66.2499ZM37.5222 44.8702L37.4989 44.7361C37.4932 44.4768 37.4655 44.2182 37.4161 43.9628H37.8489L37.5222 44.8702ZM41.2743 46.0497L41.0261 47.1981L41.025 47.2032L40.2251 50.9043H37.9844L40.901 42.8058H43.75V44.4047L41.941 45.2419C41.7707 45.3207 41.6222 45.4344 41.5066 45.5744C41.391 45.7144 41.3116 45.877 41.2743 46.0497ZM70 50.9043H42.7749L43.2749 48.5904H67.5002C67.8314 48.5904 68.1494 48.4686 68.3842 48.2516C68.6182 48.0346 68.7498 47.7404 68.7498 47.4335V42.8058C68.7498 42.499 68.6182 42.2048 68.3842 41.9878C68.1494 41.7708 67.8314 41.6489 67.5002 41.6489V17.3537C67.5002 17.0469 67.3686 16.7527 67.1339 16.5357C66.8992 16.3187 66.5818 16.1968 66.2499 16.1968H13.75C13.4185 16.1968 13.1006 16.3187 12.8661 16.5357C12.6317 16.7527 12.5 17.0469 12.5 17.3537V41.6489C12.1685 41.6489 11.8505 41.7708 11.6161 41.9878C11.3817 42.2048 11.25 42.499 11.25 42.8058V47.4335C11.25 47.7404 11.3817 48.0346 11.6161 48.2516C11.8505 48.4686 12.1685 48.5904 12.5 48.5904H15V50.9043H10V11.5691H70V50.9043Z" fill="#FC8047"/>
<path d="M47.6315 29.4403C47.7353 29.6324 47.8949 29.794 48.0924 29.907C48.2898 30.02 48.5174 30.0798 48.7495 30.0798C48.779 30.0798 48.8087 30.0788 48.8384 30.0768C49.085 30.0605 49.3209 29.9771 49.5162 29.8368C49.7115 29.6965 49.8575 29.5058 49.9357 29.2887L52.1505 23.1383H61.2495C61.581 23.1383 61.899 23.0164 62.1334 22.7995C62.3678 22.5825 62.4995 22.2882 62.4995 21.9814C62.4995 21.6746 62.3678 21.3803 62.1334 21.1633C61.899 20.9463 61.581 20.8245 61.2495 20.8245H51.2495C50.9872 20.8244 50.7314 20.9009 50.5186 21.0428C50.3057 21.1848 50.1466 21.3851 50.0636 21.6155L48.5179 25.9072L47.3675 23.7778C47.2176 23.5058 46.9577 23.2997 46.6445 23.2043C46.3312 23.1089 45.9898 23.132 45.6948 23.2685C45.3998 23.4051 45.1751 23.644 45.0695 23.9332C44.964 24.2224 44.9863 24.5386 45.1316 24.8126L47.6315 29.4403Z" fill="#FC8047"/>
<path d="M54.1162 29.741C54.2322 29.8484 54.3701 29.9336 54.5217 29.9918C54.6733 30.05 54.8359 30.0799 55.0001 30.0799C55.1642 30.0799 55.3268 30.05 55.4784 29.9918C55.6301 29.9336 55.7679 29.8484 55.884 29.741L56.8751 28.8237L57.8661 29.741C57.9822 29.8484 58.12 29.9336 58.2717 29.9918C58.4234 30.0499 58.5859 30.0798 58.75 30.0798C58.9142 30.0798 59.0768 30.0499 59.2284 29.9918C59.3801 29.9336 59.5179 29.8484 59.634 29.741C59.75 29.6335 59.8421 29.506 59.9049 29.3656C59.9678 29.2253 60.0001 29.0749 60.0001 28.9229C60.0001 28.771 59.9678 28.6205 59.9049 28.4801C59.8421 28.3398 59.75 28.2122 59.634 28.1048L58.6429 27.1875L59.634 26.2702C59.8684 26.0532 60.0001 25.759 60.0001 25.4522C60.0001 25.1453 59.8684 24.8511 59.634 24.6341C59.3996 24.4171 59.0816 24.2952 58.75 24.2952C58.4185 24.2952 58.1006 24.4171 57.8661 24.6341L56.8751 25.5513L55.884 24.6341C55.6495 24.4171 55.3316 24.2952 55.0001 24.2952C54.6685 24.2952 54.3506 24.4171 54.1162 24.6341C53.8817 24.8511 53.75 25.1453 53.75 25.4522C53.75 25.759 53.8817 26.0532 54.1162 26.2702L55.1073 27.1875L54.1162 28.1048C54.0001 28.2122 53.908 28.3398 53.8452 28.4801C53.7824 28.6205 53.75 28.771 53.75 28.9229C53.75 29.0749 53.7824 29.2253 53.8452 29.3656C53.908 29.506 54.0001 29.6335 54.1162 29.741Z" fill="#FC8047"/>
<path d="M50 34.7075H51.25C51.5815 34.7075 51.8995 34.5856 52.1339 34.3686C52.3683 34.1516 52.5 33.8574 52.5 33.5505C52.5 33.2437 52.3683 32.9494 52.1339 32.7324C51.8995 32.5155 51.5815 32.3936 51.25 32.3936H50C49.6685 32.3936 49.3506 32.5155 49.1161 32.7324C48.8817 32.9494 48.75 33.2437 48.75 33.5505C48.75 33.8574 48.8817 34.1516 49.1161 34.3686C49.3506 34.5856 49.6685 34.7075 50 34.7075Z" fill="#FC8047"/>
<path d="M61.25 32.3936H55C54.6685 32.3936 54.3506 32.5155 54.1161 32.7324C53.8817 32.9494 53.75 33.2437 53.75 33.5505C53.75 33.8574 53.8817 34.1516 54.1161 34.3686C54.3506 34.5856 54.6685 34.7075 55 34.7075H61.25C61.5815 34.7075 61.8995 34.5856 62.1339 34.3686C62.3683 34.1516 62.5 33.8574 62.5 33.5505C62.5 33.2437 62.3683 32.9494 62.1339 32.7324C61.8995 32.5155 61.5815 32.3936 61.25 32.3936Z" fill="#FC8047"/>
<path d="M56.25 37.0213H50C49.6685 37.0213 49.3506 37.1432 49.1161 37.3601C48.8817 37.5771 48.75 37.8714 48.75 38.1782C48.75 38.4851 48.8817 38.7793 49.1161 38.9963C49.3506 39.2132 49.6685 39.3351 50 39.3351H56.25C56.5815 39.3351 56.8995 39.2132 57.1339 38.9963C57.3683 38.7793 57.5 38.4851 57.5 38.1782C57.5 37.8714 57.3683 37.5771 57.1339 37.3601C56.8995 37.1432 56.5815 37.0213 56.25 37.0213Z" fill="#FC8047"/>
</svg>
