<svg width="80" height="75" viewBox="0 0 80 75" fill="none" xmlns="http://www.w3.org/2000/svg">
<path d="M79.674 31.4177L66.2841 15.102C65.7884 14.4986 64.8845 14.3497 64.1992 14.7585L55.5541 19.9158H44.2791C44.1333 19.9158 43.988 19.945 43.8476 19.9833L35.1056 22.3438L26.0346 20.0165L17.2205 14.7585C16.5467 14.3566 15.6592 14.4928 15.1581 15.0756L0.34799 32.2833C-0.184235 32.9017 -0.0963448 33.8045 0.545743 34.3227L8.30819 40.589L15.2722 49.392C13.2355 51.4273 13.2752 54.6375 15.3943 56.6258C16.3337 57.5064 17.5281 58.0039 18.7567 58.1195C18.714 58.3806 18.6921 58.6457 18.6921 58.9148C18.6921 60.3037 19.2688 61.6096 20.3156 62.5915C21.3629 63.574 22.7551 64.115 24.2359 64.115C24.256 64.115 24.2756 64.1138 24.2951 64.1133C24.2944 64.1488 24.2926 64.1837 24.2926 64.2192C24.2926 65.6082 24.8694 66.9143 25.9161 67.8965C26.9635 68.8781 28.3557 69.4195 29.8364 69.4195C30.1288 69.4195 30.4181 69.3974 30.7019 69.3558C30.8221 70.5123 31.3538 71.6379 32.2961 72.5216C33.3765 73.536 34.7961 74.0426 36.2158 74.0426C37.6355 74.0426 39.0552 73.536 40.1361 72.5216L40.9839 71.727L41.3397 71.9957C42.4114 72.9699 43.8031 73.4563 45.1946 73.4563C46.6143 73.4563 48.034 72.9498 49.1143 71.9354C50.2172 70.9009 50.7574 69.5354 50.7348 68.1773C52.1825 68.1974 53.6388 67.6915 54.7418 66.6577C55.8435 65.6236 56.3836 64.2593 56.3622 62.9012C57.8704 62.9236 59.3011 62.3802 60.3686 61.3789C61.4714 60.3444 62.0117 58.9789 61.989 57.6203C63.438 57.641 64.8931 57.1348 65.996 56.1003C67.8783 54.3346 68.1206 51.6054 66.7247 49.5907L71.8098 39.6014L79.454 33.4307C80.0862 32.9206 80.1826 32.0366 79.674 31.4177ZM16.7188 17.9469L23.0566 21.7272L9.26947 37.483L3.74459 33.0225L16.7188 17.9469ZM17.6129 51.3523L19.5258 49.558C19.5838 49.5037 19.6448 49.4521 19.7071 49.4041C20.0812 49.1178 20.5341 48.9472 21.0138 48.9065C21.0272 48.9054 21.0413 48.9054 21.0547 48.9048C21.1231 48.8997 21.1914 48.8962 21.2604 48.8968C21.9159 48.9054 22.5251 49.1567 22.9767 49.6039C23.8629 50.4827 23.8154 51.9186 22.8705 52.8049L21.0156 54.5448C20.0776 55.4247 18.5511 55.4247 17.6129 54.5448C16.6749 53.6642 16.6749 52.2323 17.6129 51.3523ZM22.5342 60.5104C22.0795 60.0844 21.8292 59.5177 21.8292 58.9148C21.8292 58.3119 22.0795 57.7451 22.5342 57.3186L26.2433 53.8394C26.9538 53.173 28.0707 52.9903 28.9789 53.3963C29.9152 53.8148 30.4419 54.768 30.3045 55.727C30.2313 56.2388 29.9774 56.7209 29.588 57.0867L25.9375 60.5104C25.4828 60.937 24.8786 61.1717 24.2359 61.1717C23.5931 61.1717 22.9889 60.937 22.5342 60.5104ZM28.1348 65.8148C27.6801 65.3889 27.4298 64.8221 27.4298 64.2192C27.4298 63.6163 27.6801 63.0495 28.1348 62.623L31.8433 59.1438C32.6031 58.4316 33.822 58.2781 34.7522 58.7859C35.6018 59.2497 36.0467 60.16 35.9009 61.0669C35.8209 61.5656 35.5682 62.0344 35.188 62.3912L31.5381 65.8148C31.0834 66.2413 30.4791 66.4761 29.8364 66.4761C29.1937 66.4761 28.5895 66.2413 28.1348 65.8148ZM34.5142 70.4406C33.576 69.5608 33.576 68.129 34.5142 67.2493L36.427 65.4547C36.485 65.4003 36.5454 65.3493 36.6077 65.3013C36.6095 65.3002 36.6107 65.2989 36.612 65.2978C36.9232 65.0608 37.2888 64.9022 37.6788 64.833C37.688 64.8318 37.6971 64.8307 37.7063 64.8295C37.7734 64.8181 37.8418 64.8089 37.9102 64.8032C37.9376 64.8009 37.9651 64.8009 37.9932 64.7992C38.0493 64.7963 38.1048 64.7929 38.1616 64.7934C38.8165 64.802 39.4262 65.0528 39.8779 65.5005C39.9334 65.5555 39.9853 65.6127 40.0329 65.6717C40.7544 66.5565 40.6573 67.8704 39.7619 68.7106L37.9169 70.4412C36.9787 71.3216 35.4522 71.321 34.5142 70.4406ZM63.7774 54.0191C62.8392 54.8997 61.3128 54.8991 60.3747 54.0191C60.3405 53.9871 60.3044 53.9573 60.2679 53.9293L50.1812 44.3682C49.5715 43.7905 48.5784 43.7859 47.9626 44.3579C47.3468 44.9292 47.3418 45.8607 47.951 46.4384L58.1469 56.102C58.1481 56.1031 58.1493 56.1043 58.1505 56.1054C59.0887 56.9854 59.0887 58.4178 58.1505 59.2978C57.6958 59.7244 57.0916 59.9591 56.4489 59.9591C55.8056 59.9591 55.2013 59.7244 54.7473 59.2978L47.9266 52.8335C47.3174 52.2558 46.3244 52.2512 45.7086 52.8226C45.0927 53.3945 45.0879 54.326 45.697 54.9037L52.4133 61.269C52.4475 61.3091 52.484 61.3474 52.5231 61.3841C53.4613 62.264 53.4613 63.6965 52.5231 64.5765C51.5844 65.4564 50.0573 65.4559 49.1192 64.5759L45.3967 61.0474C44.7869 60.4698 43.7939 60.4646 43.1781 61.0366C42.5622 61.6079 42.5574 62.5394 43.1664 63.1171L46.7852 66.5464C46.8194 66.5866 46.856 66.6255 46.8957 66.6624C47.8338 67.5421 47.8338 68.9746 46.8957 69.8543C45.9576 70.7354 44.4311 70.7347 43.493 69.8543C43.385 69.7531 43.258 69.6754 43.1371 69.5883C43.0346 69.5153 43.0078 69.4644 43.0591 69.3471C43.1109 69.2285 43.1884 69.122 43.2403 69.0027C43.2977 68.87 43.3441 68.7327 43.3892 68.5953C43.6297 67.8684 43.7005 67.0865 43.5925 66.3318C43.385 64.8839 42.536 63.5774 41.2494 62.7507C40.5542 62.3047 39.7497 62.0121 38.916 61.9022C39.32 60.2304 38.8348 58.4178 37.5726 57.1669C36.5338 56.1375 35.1306 55.5598 33.6212 55.5403C33.5662 55.5398 33.5113 55.5398 33.4558 55.5403C33.4894 54.1892 32.9657 52.8466 31.9727 51.8625C30.9333 50.8331 29.53 50.2554 28.0213 50.2359C27.5726 50.2302 27.1198 50.2749 26.6828 50.3693C26.496 49.1504 25.8411 48.0226 24.8493 47.2159C23.8636 46.4155 22.6239 45.9712 21.3037 45.954C19.9139 45.9351 18.5486 46.4161 17.5165 47.2903L11.4527 39.626L25.9595 23.048L30.5829 24.2343L24.5447 34.2288C23.8147 35.4374 23.6304 36.84 24.0253 38.1786C24.4202 39.5177 25.3467 40.6318 26.6351 41.3166C26.7157 41.3595 26.7969 41.4002 26.8793 41.4391C26.8854 41.442 26.8915 41.4448 26.8982 41.4477C27.1148 41.549 27.3376 41.6361 27.5635 41.7094C28.6151 42.0511 29.751 42.0884 30.8465 41.8044C32.2735 41.434 33.4613 40.5643 34.1912 39.3563L38.1152 32.861L45.1214 33.3271L63.778 50.8268C64.7155 51.7073 64.7155 53.1392 63.7774 54.0191ZM64.4274 47.2743L46.9256 30.8578C46.8926 30.8263 46.8578 30.7965 46.8218 30.7684C46.5698 30.5715 46.2573 30.4525 45.9277 30.4307L37.3492 29.8599C36.756 29.8215 36.1664 30.1175 35.8734 30.6024L31.4618 37.9055C31.145 38.43 30.6293 38.8073 30.0098 38.9681C29.3909 39.129 28.7415 39.0534 28.1818 38.7563C27.6227 38.4591 27.2205 37.9754 27.049 37.3943C26.8775 36.8132 26.9574 36.204 27.2748 35.6796L33.164 25.9301L35.5505 25.286C35.5664 25.2814 35.5817 25.2757 35.5975 25.2711L44.5044 22.8585H55.266L68.7011 38.8788L64.4274 47.2743ZM70.7561 36.5693L58.3318 21.7461L64.6727 17.9635L76.2819 32.1087L70.7561 36.5693Z" fill="#FC8047"/>
<path d="M48.4657 17.1528C48.8674 17.1528 49.269 17.009 49.5754 16.7217L60.2906 6.67045C60.9035 6.09563 60.9035 5.16414 60.2906 4.58933C59.6778 4.01452 58.6849 4.01452 58.0721 4.58933L47.3567 14.6405C46.744 15.2153 46.744 16.1468 47.3567 16.7217C47.6631 17.009 48.0647 17.1528 48.4657 17.1528Z" fill="#FC8047"/>
<path d="M30.4242 16.7217C30.7307 17.009 31.1322 17.1528 31.5339 17.1528C31.9349 17.1528 32.3365 17.009 32.6429 16.7217C33.2557 16.1468 33.2557 15.2153 32.6429 14.6405L21.9276 4.58933C21.3148 4.01452 20.3218 4.01452 19.709 4.58933C19.0961 5.16414 19.0961 6.09563 19.709 6.67045L30.4242 16.7217Z" fill="#FC8047"/>
<path d="M39.999 17.1528C40.8651 17.1528 41.5676 16.4938 41.5676 15.6813V7.36318C41.5676 6.55079 40.8651 5.89182 39.999 5.89182C39.1329 5.89182 38.4304 6.55079 38.4304 7.36318V15.6813C38.4304 16.4938 39.1329 17.1528 39.999 17.1528Z" fill="#FC8047"/>
<path d="M38.5528 2.03015C38.8018 2.59637 39.4226 2.96794 40.0775 2.93588C40.7245 2.90439 41.2927 2.49446 41.4929 1.91679C41.6937 1.33453 41.4752 0.670986 40.9552 0.299986C40.4248 -0.0790201 39.6851 -0.100203 39.1303 0.243879C38.5113 0.627469 38.2715 1.39122 38.5528 2.03015Z" fill="#FC8047"/>
</svg>
