<svg width="50" height="50" viewBox="0 0 50 50" fill="none" xmlns="http://www.w3.org/2000/svg">
<path d="M3.125 34.375H46.875V37.5H3.125V34.375Z" fill="#5CBCD2"/>
<path d="M3.125 40.625H46.875V43.75H3.125V40.625Z" fill="#5CBCD2"/>
<path d="M37.5 15.625C36.8819 15.625 36.2777 15.8083 35.7638 16.1517C35.2499 16.495 34.8494 16.9831 34.6129 17.5541C34.3764 18.1251 34.3145 18.7535 34.435 19.3597C34.5556 19.9658 34.8533 20.5227 35.2903 20.9597C35.7273 21.3967 36.2842 21.6944 36.8903 21.815C37.4965 21.9355 38.1249 21.8736 38.6959 21.6371C39.2669 21.4006 39.755 21.0001 40.0983 20.4862C40.4417 19.9723 40.625 19.3681 40.625 18.75C40.625 17.9212 40.2958 17.1263 39.7097 16.5403C39.1237 15.9542 38.3288 15.625 37.5 15.625Z" fill="#5CBCD2"/>
<path d="M25 25C23.7639 25 22.5555 24.6334 21.5277 23.9467C20.4999 23.2599 19.6988 22.2838 19.2258 21.1418C18.7527 19.9997 18.6289 18.7431 18.8701 17.5307C19.1113 16.3183 19.7065 15.2047 20.5806 14.3306C21.4547 13.4565 22.5683 12.8613 23.7807 12.6201C24.9931 12.3789 26.2497 12.5027 27.3918 12.9758C28.5338 13.4488 29.5099 14.2499 30.1967 15.2777C30.8834 16.3055 31.25 17.5139 31.25 18.75C31.2479 20.407 30.5888 21.9955 29.4171 23.1671C28.2455 24.3388 26.657 24.9979 25 25ZM25 15.625C24.3819 15.625 23.7778 15.8083 23.2638 16.1517C22.7499 16.495 22.3494 16.9831 22.1129 17.5541C21.8764 18.1251 21.8145 18.7535 21.935 19.3597C22.0556 19.9659 22.3533 20.5227 22.7903 20.9597C23.2273 21.3968 23.7842 21.6944 24.3903 21.815C24.9965 21.9355 25.6249 21.8737 26.1959 21.6371C26.7669 21.4006 27.255 21.0001 27.5983 20.4862C27.9417 19.9723 28.125 19.3681 28.125 18.75C28.1242 17.9215 27.7947 17.1271 27.2088 16.5412C26.6229 15.9553 25.8286 15.6258 25 15.625Z" fill="#5CBCD2"/>
<path d="M12.5 15.625C11.8819 15.625 11.2777 15.8083 10.7638 16.1517C10.2499 16.495 9.8494 16.9831 9.61288 17.5541C9.37635 18.1251 9.31447 18.7535 9.43505 19.3597C9.55563 19.9658 9.85325 20.5227 10.2903 20.9597C10.7273 21.3967 11.2842 21.6944 11.8903 21.815C12.4965 21.9355 13.1249 21.8736 13.6959 21.6371C14.2669 21.4006 14.755 21.0001 15.0983 20.4862C15.4417 19.9723 15.625 19.3681 15.625 18.75C15.625 17.9212 15.2958 17.1263 14.7097 16.5403C14.1237 15.9542 13.3288 15.625 12.5 15.625Z" fill="#5CBCD2"/>
<path d="M43.75 31.25H6.25C5.42183 31.2479 4.62817 30.918 4.04257 30.3324C3.45697 29.7468 3.12706 28.9532 3.125 28.125V9.375C3.12706 8.54683 3.45697 7.75317 4.04257 7.16757C4.62817 6.58196 5.42183 6.25206 6.25 6.25H43.75C44.5782 6.25206 45.3718 6.58196 45.9574 7.16757C46.543 7.75317 46.8729 8.54683 46.875 9.375V28.125C46.8738 28.9534 46.5441 29.7476 45.9583 30.3333C45.3726 30.9191 44.5784 31.2488 43.75 31.25ZM43.75 9.375H6.25V28.125H43.75V9.375Z" fill="#5CBCD2"/>
</svg>
