<svg width="50" height="50" viewBox="0 0 50 50" fill="none" xmlns="http://www.w3.org/2000/svg">
<path d="M44.4448 8.33331H5.55588C4.81917 8.33331 4.11263 8.62597 3.5917 9.14691C3.07076 9.66784 2.77811 10.3744 2.77811 11.1111V38.8889C2.77811 39.6256 3.07076 40.3321 3.5917 40.8531C4.11263 41.374 4.81917 41.6666 5.55588 41.6666H26.3892L27.1809 40.6944L28.4725 39.1111L28.3475 38.8889H5.55588V11.1111H44.4448V23C45.4999 23.683 46.4379 24.5319 47.2225 25.5139V11.1111C47.2225 10.3744 46.9299 9.66784 46.409 9.14691C45.888 8.62597 45.1815 8.33331 44.4448 8.33331Z" fill="#5CBCD2"/>
<path d="M9.72189 16.6667H33.333V18.8889H9.72189V16.6667Z" fill="#5CBCD2"/>
<path d="M9.72189 22.2223H24.9997V24.4445H9.72189V22.2223Z" fill="#5CBCD2"/>
<path d="M9.72189 31.9445H23.6108V34.1667H9.72189V31.9445Z" fill="#5CBCD2"/>
<path d="M38.1391 23.9305C36.3618 23.9163 34.6216 24.4387 33.1459 25.4293C31.6701 26.4199 30.5275 27.8326 29.8674 29.4829C29.2073 31.1331 29.0604 32.9441 29.4459 34.6792C29.8314 36.4143 30.7313 37.9927 32.028 39.2082L29.3336 42.4999L30.5836 47.5138L35.6669 41.3193C37.276 41.7951 38.9884 41.7951 40.5975 41.3193L45.6808 47.5138L46.9308 42.4999L44.2364 39.2082C45.5331 37.9927 46.433 36.4143 46.8185 34.6792C47.204 32.9441 47.057 31.1331 46.3969 29.4829C45.7368 27.8326 44.5943 26.4199 43.1185 25.4293C41.6428 24.4387 39.9026 23.9163 38.1252 23.9305H38.1391ZM38.1391 38.7638C36.9589 38.7474 35.8098 38.3824 34.8364 37.7147C33.8631 37.047 33.1088 36.1065 32.6685 35.0113C32.2281 33.9161 32.1214 32.7152 32.3617 31.5596C32.602 30.4039 33.1786 29.3451 34.019 28.5163C34.8594 27.6874 35.9261 27.1255 37.0849 26.9012C38.2438 26.6769 39.4431 26.8002 40.5321 27.2556C41.6211 27.7111 42.5511 28.4783 43.2052 29.4608C43.8594 30.4433 44.2085 31.5973 44.2086 32.7777C44.1939 34.3752 43.5471 35.9019 42.4096 37.0237C41.2722 38.1456 39.7367 38.7712 38.1391 38.7638Z" fill="#5CBCD2"/>
</svg>
