<svg width="63" height="50" viewBox="0 0 63 50" fill="none" xmlns="http://www.w3.org/2000/svg">
<g clip-path="url(#clip0)">
<path d="M26.5625 28.125H20.3125C19.8981 28.125 19.5007 27.9604 19.2076 27.6674C18.9146 27.3743 18.75 26.9769 18.75 26.5625V20.3125C18.75 19.8981 18.9146 19.5007 19.2076 19.2076C19.5007 18.9146 19.8981 18.75 20.3125 18.75H26.5625C26.9769 18.75 27.3743 18.9146 27.6674 19.2076C27.9604 19.5007 28.125 19.8981 28.125 20.3125V23.9375C29.21 22.6797 30.7617 21.875 32.5 21.875H45.873L46.5225 21.1396C46.734 20.876 46.8573 20.5524 46.875 20.2148C46.8529 19.8242 46.6878 19.4554 46.4111 19.1787L40.625 14.0625V4.6875C40.625 4.2731 40.4604 3.87567 40.1674 3.58265C39.8743 3.28962 39.4769 3.125 39.0625 3.125H35.9375C35.5231 3.125 35.1257 3.28962 34.8326 3.58265C34.5396 3.87567 34.375 4.2731 34.375 4.6875V8.52539L25.7324 0.871094C25.1953 0.390625 24.165 0 23.4424 0C22.7197 0 21.6914 0.390625 21.1504 0.871094L0.466797 19.1816C0.188508 19.4563 0.0221515 19.8245 0 20.2148C0.0168688 20.5492 0.13811 20.8699 0.34668 21.1318L2.18164 23.2129C2.45862 23.4924 2.82972 23.6588 3.22266 23.6797C3.55444 23.6631 3.873 23.5444 4.13477 23.3398L6.25 21.4727V37.5C6.25 38.3288 6.57924 39.1237 7.16529 39.7097C7.75134 40.2958 8.5462 40.625 9.375 40.625H26.5625V28.125ZM61.458 43.75H57.8125V28.125C57.8125 26.3994 56.5537 25 55 25H32.5C30.9463 25 29.6875 26.3994 29.6875 28.125V43.75H26.042C25.7656 43.75 25.5006 43.8598 25.3052 44.0552C25.1098 44.2506 25 44.5156 25 44.792V45.833C25.0038 46.9358 25.4432 47.9924 26.2223 48.7729C27.0015 49.5533 28.0574 49.9943 29.1602 50H58.3398C59.4426 49.9943 60.4985 49.5533 61.2777 48.7729C62.0568 47.9924 62.4962 46.9358 62.5 45.833V44.792C62.5 44.5156 62.3902 44.2506 62.1948 44.0552C61.9994 43.8598 61.7344 43.75 61.458 43.75ZM53.125 43.75H34.375V29.6875H53.125V43.75Z" fill="#5CBCD2"/>
</g>
<defs>
<clipPath id="clip0">
<rect width="62.5" height="50" fill="white"/>
</clipPath>
</defs>
</svg>
