<svg width="50" height="50" viewBox="0 0 50 50" fill="none" xmlns="http://www.w3.org/2000/svg">
<g clip-path="url(#clip0)">
<path d="M7.69231 5.76923C3.46731 5.76923 0 9.23461 0 13.4615V36.5385C0 40.7635 3.46731 44.2308 7.69231 44.2308H11.5385C12.0485 44.2308 12.5376 44.0282 12.8983 43.6675C13.2589 43.3069 13.4615 42.8177 13.4615 42.3077V40.3846H15.3846V42.3077C15.3846 42.8177 15.5872 43.3069 15.9479 43.6675C16.3085 44.0282 16.7977 44.2308 17.3077 44.2308H32.6923C33.2023 44.2308 33.6915 44.0282 34.0521 43.6675C34.4128 43.3069 34.6154 42.8177 34.6154 42.3077V40.3846H36.5385V42.3077C36.5385 42.8177 36.7411 43.3069 37.1017 43.6675C37.4624 44.0282 37.9515 44.2308 38.4615 44.2308H42.3077C46.5327 44.2308 50 40.7635 50 36.5385V13.4615C50 9.23461 46.5327 5.76923 42.3077 5.76923H7.69231ZM7.69231 9.61538H42.3077C44.4519 9.61538 46.1538 11.3154 46.1538 13.4615V36.5385C46.1538 38.6827 44.4519 40.3846 42.3077 40.3846H40.3846V38.4615C40.3846 37.9515 40.182 37.4624 39.8214 37.1017C39.4607 36.7411 38.9716 36.5385 38.4615 36.5385H32.6923C32.1823 36.5385 31.6931 36.7411 31.3325 37.1017C30.9718 37.4624 30.7692 37.9515 30.7692 38.4615V40.3846H19.2308V38.4615C19.2308 37.9515 19.0282 37.4624 18.6675 37.1017C18.3069 36.7411 17.8177 36.5385 17.3077 36.5385H11.5385C11.0284 36.5385 10.5393 36.7411 10.1786 37.1017C9.81799 37.4624 9.61538 37.9515 9.61538 38.4615V40.3846H7.69231C5.54808 40.3846 3.84615 38.6827 3.84615 36.5385V13.4615C3.84615 11.3154 5.54808 9.61538 7.69231 9.61538ZM15.3846 13.5827C13.1923 13.5827 11.5981 15.1346 11.5981 17.9673C11.5981 19.8192 12.3865 21.075 13.5212 22.2365C13.9635 23.3961 13.1462 23.7961 12.9808 23.8577C10.6885 24.6865 7.81154 25.9115 7.81154 27.4038V28.1846C7.81154 30.2192 11.7365 30.6481 15.3846 30.6481C19.0385 30.6481 22.9577 30.2192 22.9577 28.1865V27.4038C22.9577 25.8654 20.0731 24.6538 17.6692 23.8577C17.5558 23.8211 16.8731 23.55 17.3077 22.2346C18.4385 21.0731 19.1115 19.8115 19.1115 17.9692C19.1115 15.1327 17.575 13.5827 15.3846 13.5827ZM35.5769 13.6404C34.4077 13.6404 33.3019 13.8096 32.2712 14.2423C31.2596 14.6588 30.3406 15.2716 29.5672 16.0453C28.7938 16.819 28.1814 17.7383 27.7654 18.75C27.3288 19.7788 27.1635 20.9231 27.1635 22.1154C27.1635 23.3692 27.3462 24.4923 27.7654 25.5404C28.1808 26.5923 28.7596 27.4923 29.5077 28.2442C30.2462 28.9904 31.1269 29.5769 32.1519 29.9885C33.2252 30.4011 34.3675 30.6048 35.5173 30.5885C36.2288 30.5885 36.8635 30.5942 37.4404 30.5288C38.0135 30.4654 38.625 30.3635 39.2423 30.2288V28.125C38.6788 28.2885 38.05 28.4481 37.3808 28.5461C36.7115 28.6423 36.0865 28.6654 35.5154 28.6654C34.7077 28.6654 33.9115 28.5269 33.1731 28.2442C32.45 27.9645 31.7946 27.5345 31.25 26.9827C30.6474 26.4095 30.1757 25.7128 29.8673 24.9404C29.5365 24.1135 29.3865 23.1711 29.3865 22.1154C29.3865 21.125 29.5788 20.2288 29.9269 19.4115C30.2808 18.5942 30.7346 17.8654 31.3115 17.3077C31.9135 16.7308 32.5808 16.3365 33.2923 16.0461C34.0077 15.7519 34.7731 15.5654 35.5769 15.5654C36.4231 15.5654 37.1904 15.7231 37.9212 15.9865C38.6519 16.2481 39.3019 16.6404 39.8442 17.1865C40.3808 17.725 40.8077 18.375 41.1058 19.1711C41.4058 19.9692 41.5269 20.9308 41.5269 21.9961C41.5269 22.5981 41.4712 23.1538 41.3462 23.7385C41.2426 24.2748 41.0815 24.7983 40.8654 25.3H39.3635V17.4269H37.0769V18.0288C36.8449 17.811 36.5818 17.6289 36.2962 17.4885C35.9398 17.319 35.5483 17.2366 35.1538 17.2481C34.6115 17.2481 34.0923 17.3673 33.5923 17.6077C33.0923 17.8381 32.6427 18.1648 32.2692 18.5692C31.8846 19.0173 31.6 19.5788 31.3692 20.1923C31.1385 20.8077 31.0077 21.4827 31.0077 22.2365C31.0077 22.9673 31.1192 23.6558 31.3077 24.2788C31.4942 24.9038 31.7077 25.4404 32.0288 25.8423C32.3558 26.2558 32.7827 26.5231 33.2308 26.7423C33.6788 26.9615 34.1558 27.1038 34.6731 27.1038C35.025 27.1038 35.3135 27.0827 35.5154 27.0442C35.7212 27.0019 35.9385 26.9481 36.175 26.8635C36.3865 26.7942 36.5404 26.7269 36.7173 26.6231C36.8865 26.5192 37.0808 26.3788 37.2577 26.2615L37.3788 26.9231H42.3654C42.8229 26.2414 43.1682 25.4909 43.3885 24.7C43.6577 23.7442 43.7481 22.8231 43.7481 21.9346C43.7481 20.6788 43.5577 19.5231 43.1462 18.5096C42.7496 17.5373 42.1564 16.6574 41.4038 15.925C40.6681 15.1921 39.7888 14.6192 38.8212 14.2423C37.7877 13.8356 36.6856 13.6319 35.575 13.6423L35.5769 13.6404ZM35.4558 19.1711C35.7538 19.1711 36.0615 19.1711 36.2981 19.2308C36.5327 19.2904 36.7404 19.3961 37.0192 19.5308V24.4596C36.7856 24.6754 36.5228 24.8573 36.2385 25C35.9621 25.153 35.6524 25.2355 35.3365 25.2404C34.6635 25.2404 34.1885 24.9558 33.8942 24.4596C33.6 23.9635 33.4135 23.2519 33.4135 22.2365C33.4135 21.3154 33.6 20.5692 33.9538 20.0115C34.1047 19.7482 34.3244 19.5309 34.5893 19.3829C34.8542 19.2349 35.1544 19.1617 35.4577 19.1711H35.4558Z" fill="#5CBCD2"/>
</g>
<defs>
<clipPath id="clip0">
<rect width="50" height="50" fill="white"/>
</clipPath>
</defs>
</svg>
